@startuml
title Dyrkbar jord - Objekttyper

skinparam backgroundColor #F5F5F5
skinparam shadowing false
skinparam RoundCorner 6
skinparam ArrowColor #6C8198
skinparam class {
  BackgroundColor #FBF2E8
  BorderColor #9C8578
  FontColor #2D201A
  HeaderBackgroundColor #EFE1D6
  HeaderFontColor #2D201A
  AttributeIconSize 0
}
skinparam note {
  BackgroundColor #FFFFFF
  BorderColor #6C8198
  FontColor #2D201A
}
skinparam stereotypeCBackgroundColor #EAD9CE
skinparam stereotypeCBorderColor #9C8578
skinparam stereotypeCFontColor #2D201A

package "Objekttyper" {

  abstract class DyrkbarJord_Fellesegenskaper <<featureType>> {
    ' Ingen attributter
  }

  class ArealressursFlate <<featureType>> {
    + identifikasjon [1] : Identifikasjon
    + informasjon [1] : CharacterString
    + kopidata [0..1] : Kopidata
    + dyrkbarJord [1] : DyrkbarJord
    + fulldyrka2008 [1] : Fulldyrka2008
    + myrTorv [1] : MyrTorv
    + område [1] : GM_Surface
    + planeringsjord [1] : Planeringsjord
    + verneform [1] : Verneform
    + årsversjon [1] : Integer
  }

  class ArealressursGrense <<featureType>> {
    + grense [1] : GM_Curve
  }

  class Identifikasjon {
    + lokalId [1] : CharacterString
    + navnerom [1] : CharacterString
  }

  class Kopidata {
    + kopidato [1] : Date
    + områdeId [1] : Integer
    + originalDatavert [1] : CharacterString
  }
}

  DyrkbarJord_Fellesegenskaper <|-- ArealressursFlate
  ArealressursFlate --> ArealressursGrense : avgrensesAvArealressursGrense [0..*]

@enduml
